<svg id="圖層_1" data-name="圖層 1" xmlns="http://www.w3.org/2000/svg" viewBox="0 0 1271.66 379.12"><defs><style>.cls-1{fill:#fff;}</style></defs><title>eva vec</title><path class="cls-1" d="M383.87,801.78c-18.16,0-36.32,0-54.48,0-2.14,0-5.17,1.35-5.25-3.09-.06-3.46,1.11-4.44,4.43-4.83,7.69-.91,11-4.29,12.82-11.85a39.89,39.89,0,0,0,.78-9.43q0-69.46,0-138.93a56,56,0,0,0-.29-7c-1.16-9.09-4.78-13.2-13.79-14.38-3.9-.52-3.92-2.39-3.88-5.29.05-3.75,2.75-2.68,4.64-2.68,36.48,0,73,0,109.46-.1,3.35,0,4.65.75,4.61,4.39-.19,16.82-.07,33.65-.11,50.47,0,1.64.77,3.81-2.25,4-2.68.2-3.27-1.06-3.64-3.44a125,125,0,0,0-5.76-23.21c-4.47-12.48-13.12-19.62-26.22-21.65a85.58,85.58,0,0,0-20.9-.85c-4.77.42-7.75,2.75-8.25,7.71-.2,2-.52,4-.53,6,0,21,.08,42-.11,63,0,3.89,1.16,4.75,4.83,4.56,12.29-.65,19-5.34,23.27-16.88a111.43,111.43,0,0,0,5.09-21.32c.31-2,0-4.55,3.42-4.38,3.78.19,2.44,3,2.44,4.8q.12,44.22,0,88.45c0,1.68,1.15,4.17-2.28,4.44s-3.1-2.27-3.35-4.25c-1-8.11-2.2-16.16-5.25-23.82-4.43-11.15-13.33-17-25.22-16.81-2.21,0-2.9.76-2.89,2.89.07,23.65-.14,47.31.21,71,.14,9.43,3.34,12.33,12.88,13,20.12,1.48,36.26-5.24,46.72-23.3a131.43,131.43,0,0,0,10.92-24.59c.81-2.43,1.91-3.84,4.56-3.25,3,.65,1.48,3,1.29,4.43-2.23,17.17-4.67,34.31-6.89,51.48-.46,3.56-1.65,4.93-5.55,4.88C420.86,801.65,402.36,801.78,383.87,801.78Z" transform="translate(-324.14 -428.89)"/><path class="cls-1" d="M1036.9,801.77H981.42c-2.2,0-4.33.37-4.27-3.11.05-2.89.41-4.41,3.89-4.82,8.59-1,12.28-4.81,13.68-13.31a43.91,43.91,0,0,0,.4-7q0-70.45,0-140.91a52,52,0,0,0-.25-6c-1-9-4.74-13.22-13.73-14.42-3.85-.51-4-2.27-4-5.23.06-3.7,2.67-2.74,4.61-2.75,36.48,0,73,0,109.46-.08,3.24,0,4.71.54,4.66,4.3-.2,16.82-.07,33.65-.1,50.47,0,1.86.7,4.1-2.65,4.14-3,0-3-1.85-3.28-3.87A128.37,128.37,0,0,0,1084,636c-4.48-12.28-13.12-19.22-26-21.25a83.4,83.4,0,0,0-21.4-.81c-4.57.47-7.34,2.86-7.82,7.58-.21,2.15-.54,4.3-.55,6.45,0,20.82.07,41.65-.11,62.47,0,3.75,1,4.85,4.77,4.66,12.3-.64,19-5.31,23.3-16.83,2.63-7.06,4-14.41,5.21-21.81.3-1.85.14-4.07,3.24-4,3.37.11,2.54,2.46,2.55,4.26q0,44.72,0,89.45c0,1.61.83,3.78-2.25,4s-3-1.58-3.29-3.69c-1-8.26-2.2-16.5-5.29-24.32-4.42-11.15-13.24-16.92-25.2-16.89-3.71,0-2.92,2.35-2.93,4.36q0,29.47,0,59c0,4.66-.3,9.32.59,14,1.13,5.93,3.51,8.33,9.44,9.33,20.7,3.47,38.94-4.95,49.71-23a128.21,128.21,0,0,0,10.81-24.09c.83-2.38,1.56-4.54,4.66-3.79,3.26.79,1.45,3.36,1.25,4.91-2.19,17.17-4.65,34.3-6.86,51.47-.42,3.27-1.54,4.42-5,4.39C1074.22,801.68,1055.56,801.78,1036.9,801.77Z" transform="translate(-324.14 -428.89)"/><path class="cls-1" d="M1569.9,724.73V704.38q0-31.23,0-62.46A98.38,98.38,0,0,0,1569,628c-1.2-8.54-5.54-14.34-14.29-15.63-4-.59-3.72-2.74-3.69-5.51,0-3.79,2.86-2.55,4.7-2.57,12.16-.09,24.32,0,36.48,0,1.65,0,3.67-.26,3.44,2.31-.18,2.05,1.4,5-2.23,5.66-11.77,2.25-13.82,10.63-13.79,20.88.13,40.3,0,80.61,0,120.91,0,16.15.05,32.31-.08,48.46,0,1.79,1.56,4.57-1.94,5.26-3,.58-4.42-1-5.81-3.42q-31.3-55.12-62.77-110.16-11-19.3-22-38.58c-.86-1.5-1.27-3.42-3.19-4.27-1.3,1.5-.68,3.23-.68,4.77q-.07,54.47,0,108.92a98.47,98.47,0,0,0,1,13.94c1.28,8.76,5.67,13.51,14.39,14.86,3.83.6,3.35,2.67,3.48,5.17.18,3.25-2,2.82-4,2.82-12.83,0-25.66,0-38.48,0-2.09,0-4.1.17-3.89-2.95.15-2.28-.45-4.37,3.17-4.91,9.6-1.42,12.85-5,14.06-14.58a81,81,0,0,0,.6-10q.06-66.2.07-132.4a12,12,0,0,0-2.31-7.92c-4.63-5.91-6.64-13.86-14.31-17.46-2-1-1-4-.72-6,.2-1.82,2-1.32,3.27-1.32,12.5,0,25,.08,37.48-.1,3.1,0,3.89,2,5,4l57.11,100.18c3.2,5.6,6.43,11.18,9.64,16.77Z" transform="translate(-324.14 -428.89)"/><path class="cls-1" d="M946.46,717.76c10.33,0,20.66,0,31,0,2.07,0,4.49-.65,4.39,3-.07,2.54-.18,4.14-3.41,4.77-9.6,1.89-12.47,5.28-13.48,15.15-1.55,15.12-.5,30.3-.67,45.45,0,3-.86,5-3.43,6.54C940,805.35,917.67,810.8,893.44,806c-14.34-2.86-25.54-11-34.59-22.24-12.79-15.88-19.61-34.32-22.28-54.3-3.79-28.34-2.2-56.19,9.48-82.8,5.14-11.7,12-22.26,21.5-31,18.14-16.7,42.32-20.09,64.39-9.08,3.57,1.79,7.12,3.64,10.79,5.21,7.09,3.05,9.81,1.66,12.63-5.41.94-2.33-.23-7.16,4.59-6.11,4,.86,1.91,4.68,1.93,7.05.19,19,.13,38,0,57,0,1.54,1.17,3.86-1.81,4.35s-3.64-1.25-4.42-3.53A190.45,190.45,0,0,0,944,637.05c-4-7.56-8.82-14.53-15.45-20.06-15.18-12.65-33.81-9.48-43.75,7.58-6.84,11.74-9.51,24.83-11.15,38.08-4.23,34.15-3.9,68.13,4.48,101.74,1.78,7.12,4,14.09,8.16,20.28a30.39,30.39,0,0,0,33.13,13c7.38-1.76,11.86-6.57,12.32-15a360.08,360.08,0,0,0,0-43c-.67-10.36-4.31-13.15-16-14.52-2.06-.24-4.38.33-4.35-3.19,0-3.06.61-4.44,4.12-4.37C925.79,717.91,936.13,717.76,946.46,717.76Z" transform="translate(-324.14 -428.89)"/><path class="cls-1" d="M1169.14,801.78q-27.24,0-54.47,0c-2.09,0-4.77,1-4.81-3,0-3.32.85-4.52,4.31-4.91,7.79-.87,11.43-4.54,12.9-12.32a46.61,46.61,0,0,0,.78-8.42q.06-69.95,0-139.9a46.25,46.25,0,0,0-.56-7.44c-1.49-8.84-4.69-12.35-13.47-13.49-3.86-.49-3.95-2.29-3.93-5.23,0-3.72,2.65-2.74,4.57-2.74q31.48-.07,63,0c2.23,0,4.33-.29,4.28,3.14,0,2.87-.35,4.39-3.92,4.72-12.77,1.16-16.43,4.79-16.85,17.58-.51,15.64-.43,31.3-.46,47q-.08,48.46,0,96.93c0,14.42.35,19.83,20.79,18.77,16.89-.87,29.1-9.31,37.09-24.12,5-9.28,8.46-19.16,11.34-29.25.64-2.28,1.46-3.45,4-3.33,2.1.1,2.87.56,2.57,2.92q-3.85,30.21-7.46,60.45c-.4,3.37-2.66,2.78-4.74,2.78Z" transform="translate(-324.14 -428.89)"/><path class="cls-1" d="M541.24,737.91q4.62-17,9.22-34.07,9.43-35.18,18.84-70.37a24.81,24.81,0,0,0,.72-3.92c1.44-12.87-.59-15.74-13.42-17.35-3.66-.46-3.65-2.18-3.74-4.89-.13-3.52,2.15-3.07,4.31-3.07q17.73,0,35.47,0c1.71,0,4-.64,3.84,2.38-.15,2.25,1.11,4.91-2.83,5.74-5.88,1.24-9.21,5.64-11.4,11-5,12.2-7.67,25.12-11.13,37.78q-19.33,70.76-38.42,141.58c-.43,1.58-.74,3.45-1.78,4.56-1.74,1.86-5.16.11-6.11-3q-10.39-34.65-20.75-69.31Q489,684.46,473.93,634a85.15,85.15,0,0,0-5.11-13.52c-2-4.06-4.89-7.37-9.46-8.19-4-.72-2.8-3.42-2.88-5.69-.11-3,2.17-2.38,3.9-2.38q30.22,0,60.46,0c2.26,0,4.27-.21,4.19,3.21-.07,2.91-.44,4.36-3.94,4.7-13.22,1.31-16.39,5.93-12.56,19C519,666.7,529.68,702.2,540.28,737.74Z" transform="translate(-324.14 -428.89)"/><path class="cls-1" d="M1273.29,801.77c-10.66,0-21.32,0-32,0-2.34,0-3.83-.3-3.71-3.18.1-2.48,0-4.27,3.43-4.69,9.68-1.17,13-4.56,14.48-14.11a51.6,51.6,0,0,0,.41-8q0-68.93,0-137.85a51.67,51.67,0,0,0-.42-8c-1.46-9.32-4.74-12.78-14.16-13.87-3.69-.43-3.66-2.2-3.74-4.9-.1-3.52,2.23-3,4.36-3q31.23,0,62.45,0c2.41,0,4.52-.29,4.51,3.42,0,3.24-1,4.15-4.18,4.49-10.4,1.13-14.16,5.25-15,15.79-.26,3.48-.28,7-.29,10.48q0,65.43,0,130.86c0,3.33.06,6.67.35,10,.83,9.34,5.12,13.83,14.47,14.71,3.18.3,4.66.95,4.59,4.6-.08,4.39-3,3.17-5.17,3.19C1293.6,801.82,1283.45,801.78,1273.29,801.77Z" transform="translate(-324.14 -428.89)"/><path class="cls-1" d="M801.39,493c0-14.32.06-28.64,0-43,0-8.73-1-10.06-9.08-13-1.72-.61-1.89-1.55-1.86-2.94s.87-2,2.26-2,2.66,0,4,0c20.49,0,41,.09,61.46-.08,3.68,0,4.9.87,4.79,4.69-.28,9.32-.07,18.65-.13,28,0,1.31.71,3.32-1.76,3.33-1.89,0-1.79-1.59-2-2.87a63.34,63.34,0,0,0-3.56-13.48c-4.3-10.56-19.57-17-30.19-12.85a4.93,4.93,0,0,0-3.35,5c-.1,13.82-.09,27.64-.19,41.45,0,2.32,1.08,2.78,3.09,2.6,6.09-.51,10.85-2.83,13.23-8.91a79.7,79.7,0,0,0,3.66-14.49c.24-1.29.21-2.86,2.23-2.5,1.67.3,1.27,1.74,1.27,2.8q0,27.22,0,54.45c0,1.08.27,2.52-1.48,2.61s-1.71-1.17-1.87-2.36a73.07,73.07,0,0,0-3.06-14.63c-2.31-6.55-7.1-9.73-13.81-10.58-2.43-.31-3.28.4-3.27,2.84.09,14.16.07,28.31.12,42.46,0,4.82,2.45,7.26,7.33,7.62,12.79.93,22.83-3.32,29.23-14.9a94,94,0,0,0,6.22-14.13c.49-1.4,1.12-2.49,2.79-2.17,2.11.41,1.23,2,1.06,3.18-1.44,10.21-3,20.42-4.32,30.64-.29,2.12-.79,3.31-3.26,3.3-22.49-.06-45,0-67.45,0-1.26,0-2.79.31-3-1.7-.21-1.81.53-2.59,2.3-3.15,7.16-2.24,8.52-3.95,8.59-11.79.14-14.49,0-29,0-43.46Z" transform="translate(-324.14 -428.89)"/><path class="cls-1" d="M939.21,504.94c0-9.27,0-18.54,0-27.81,0-9,0-18-.15-27-.14-6.26-1.93-11.65-9.15-12.94-2.19-.39-2.06-1.77-2-3.3.12-2,1.68-1.72,3-1.72q10.5,0,21,0c1.24,0,2.87-.41,3,1.62.12,1.5.3,3.05-1.8,3.5-7.49,1.61-8.05,7.35-8,13.48q0,50.23,0,100.45c0,1.16,0,2.33,0,3.5-.17,3.16-2.15,2.62-3.71,1.42-1.11-.85-1.66-2.45-2.4-3.75q-24.66-43.12-49.31-86.25c-.87-1.53-1.83-3-2.8-4.59-1.4,1.16-.89,2.41-.89,3.46q-.06,33.23,0,66.46a50.39,50.39,0,0,0,.48,7.47c.7,4.64,3,8.12,7.91,9.13,1.83.38,3.12.94,2.92,3.19s-2,1.83-3.34,1.84q-10.75.07-21.49,0c-1.42,0-3.12.36-3.18-2,0-1.65.69-2.25,2.17-2.75,7-2.39,8.21-4.12,8.6-11.42.11-2,.08-4,.08-6,0-25-.22-50,.14-75,.11-7.85-3.84-13.14-8.69-18.18-1.28-1.33-2.27-2.32-1.86-4.11.57-2.53,2.69-1.43,4.13-1.46,6.16-.12,12.33.12,18.49-.12,3.09-.12,4.74,1,6.24,3.66,12,21.3,24.22,42.51,36.36,63.75,1.07,1.87,2.16,3.73,3.24,5.6Z" transform="translate(-324.14 -428.89)"/><path class="cls-1" d="M771.62,501.58c6,0,12,0,18,0,1.36,0,3.13-.55,3.48,1.76s-.92,2.89-2.77,3.2c-5.54.95-7.2,5-7.34,9.83-.25,8.49-.36,17-.23,25.48a6.61,6.61,0,0,1-3.63,6.44c-10.77,6.43-22.38,9.48-34.87,8.4-12.67-1.1-22.12-7.76-29-18.17-10.84-16.33-13.09-34.62-11.72-53.62.94-13,4.47-25.17,11.56-36.25,12-18.81,32.31-24.64,50.43-13.7a25.32,25.32,0,0,0,3.15,1.51c4.92,2.09,6.42,1.45,8.24-3.54.55-1.5.42-3.75,2.81-3.34s1.4,2.7,1.42,4.13q.14,16.75,0,33.49c0,1.43,1,3.72-1.52,4-2.29.28-2.31-2-2.86-3.44A125.36,125.36,0,0,0,770,452.25a39.7,39.7,0,0,0-9.45-12.15c-9.35-7.69-20.69-5.74-26.76,4.73-4.69,8.1-6.23,17.16-7.19,26.3-2.09,20.18-1.8,40.25,3.44,60a36.72,36.72,0,0,0,4.85,11.44,18.06,18.06,0,0,0,15.63,8.32c8.39.08,12.29-3.59,12.46-12,.14-7.16.15-14.33,0-21.49-.18-7.75-1.9-9.69-9.3-11-1.64-.3-3.44-.1-3.26-2.65s2.18-2.05,3.7-2.07C760,501.54,765.79,501.58,771.62,501.58Z" transform="translate(-324.14 -428.89)"/><path class="cls-1" d="M396.92,505c0-18.3.14-36.6-.07-54.9-.07-6.16-2-11.67-9.27-12.9-2.16-.36-2.1-1.77-2-3.31.17-2,1.69-1.7,3-1.7h21c1.3,0,2.84-.29,3.05,1.66.17,1.54.18,3-1.85,3.49-7.18,1.58-7.94,6.95-7.93,13q.11,50.24,0,100.46a33.15,33.15,0,0,1-.05,4c-.34,2.94-2.19,2.57-3.81,1.31-1-.76-1.47-2.18-2.13-3.33l-49.83-87.12c-.8-1.4-1.62-2.79-2.48-4.27-1.58,1.2-1,2.63-1,3.82q-.08,32.49,0,65a78.88,78.88,0,0,0,.45,8c.51,5.1,2.78,8.89,8.19,10,1.87.37,3.05,1,2.81,3.23-.26,2.43-2.07,1.74-3.39,1.76-7.16.06-14.32,0-21.49,0-1.41,0-3.07.39-3.14-2-.06-2,1-2.63,2.66-2.83,5-.59,7.12-3.83,7.63-8.44a73.22,73.22,0,0,0,.54-8c0-25.32-.17-50.65.14-76,.1-7.83-4-13.1-8.81-18.14-1.26-1.32-2.32-2.26-1.91-4.06.57-2.52,2.69-1.45,4.12-1.48,5.83-.12,11.68.2,17.49-.14,3.82-.22,5.92,1,7.83,4.42,12.13,21.63,24.51,43.12,36.82,64.65.8,1.4,1.69,2.76,2.53,4.14Z" transform="translate(-324.14 -428.89)"/><path class="cls-1" d="M595.22,461.83v4.77c0,21,0,42,0,63a85.57,85.57,0,0,0,.66,9.45c.54,4.78,3,8,7.89,9.1,1.74.38,3.23.73,3,3.08-.26,2.75-2.32,1.89-3.76,1.91-7,.09-14,.06-21,0-1.39,0-3.12.45-3.24-2-.1-1.95.87-2.7,2.59-2.91,5.59-.68,7.36-4.55,7.76-9.44.23-2.82.31-5.65.31-8.48,0-24.82-.19-49.65.13-74.46.1-7.83-3.81-13.19-8.75-18.16-1.35-1.36-2.13-2.39-1.78-4.12.46-2.25,2.39-1.37,3.69-1.39,6.33-.09,12.67.14,19-.12,3.14-.13,4.74,1.08,6.22,3.69q18.43,32.6,37.12,65.05c.87,1.52,1.36,3.36,3,4.46,1.25-1.34.62-2.89.62-4.26q.09-22.5,0-45c0-2.82-.33-5.64-.57-8.46-.45-5.38-2.93-9.16-8.48-10.29-1.76-.36-2.59-1-2.55-2.93.05-2.29,1.53-2.2,3.07-2.2,7,0,14,0,21,0,1.26,0,2.76-.33,3,1.68s-.2,3.2-2.3,3.68c-5.54,1.25-7.29,5.22-7.3,10.41,0,14.16-.16,28.31-.19,42.47,0,20.32,0,40.65-.06,61,0,1.8,1.14,4.43-1.23,5.28-2.87,1-3.43-1.94-4.43-3.69q-24.45-42.68-48.83-85.38c-1.14-2-2.34-4-3.51-6Z" transform="translate(-324.14 -428.89)"/><path class="cls-1" d="M968.09,492.51c0-14.16,0-28.32,0-42.47,0-8.7-.92-10-9.12-12.92-1.74-.61-1.89-1.55-1.84-2.95.09-2.78,2.24-2,3.69-2q27-.07,54,0c4.62,0,10.62-2,13.52.8,3.16,3,.87,9.14,1,13.9.2,5.82.1,11.66,0,17.49,0,1.33.75,3.35-1.46,3.64-2.36.31-1.87-1.83-2.15-3.15-1.13-5.2-2.14-10.43-4.52-15.27-4.41-8.94-20.5-14.7-29.57-10.64a4.9,4.9,0,0,0-3,4.77c-.17,14-.22,28-.32,41.95,0,1.66.73,2.21,2.43,2.32a14.27,14.27,0,0,0,13.44-7.84c2.23-4.7,3.21-9.77,4-14.88.22-1.34,0-3.35,2.21-3.25,2.5.11,1.52,2.2,1.52,3.43q.1,26.49,0,53c0,1.25.93,3.36-1.55,3.43-2.31.07-1.83-2.06-2-3.35a59.11,59.11,0,0,0-3.17-14.08c-1.19-3-2.78-5.71-5.61-7.43-3.19-2-7.06-3.78-10.31-2.26-2.43,1.14-.93,5.18-1,7.89q-.2,17.24,0,34.48c.08,8.27,2.19,10.19,10.5,10.28,12.63.15,21.69-5.49,27.18-16.78,1.89-3.88,3.42-7.94,5.1-11.92.57-1.37.91-3,3-2.64s1.17,2.1,1,3.22c-1.38,10.39-2.87,20.77-4.27,31.16-.27,2.09-1.33,2.73-3.34,2.73q-33.74-.06-67.47,0c-1.23,0-2.74.33-2.9-1.75-.15-1.83.56-2.57,2.32-3.1,7-2.1,8.55-4,8.61-11.3.12-14.83,0-29.65,0-44.47Z" transform="translate(-324.14 -428.89)"/><path class="cls-1" d="M1154.25,533.5q0-9.5,0-19c0-1.31-.27-2.83,1.67-3s2.07,1.18,2.34,2.55a99.12,99.12,0,0,0,4.51,17.36c2.27,5.84,5.29,11.16,10.41,15,9,6.65,19.54,3.56,23.49-6.77,4-10.6,1.42-20.66-7.49-27.69-5.49-4.32-11.35-8.19-16.8-12.56-17.51-14-22.27-34.6-12.92-55,6.2-13.5,17.54-18.42,31.64-13.65a44.62,44.62,0,0,1,6,2.49c3.83,2,7.31,3.19,8.62-2.7.28-1.25,1.21-1.4,2.28-1.38,1.72,0,1.71,1.26,1.72,2.44q0,17,0,34c0,1.15.07,2.46-1.65,2.49-1.91,0-1.9-1.44-2.19-2.73a64.86,64.86,0,0,0-7.93-20.37c-5.21-8.4-12.38-12-19.43-9.71-6.28,2-10.12,9.9-9.4,19.2a18.64,18.64,0,0,0,6.36,13.11,165.53,165.53,0,0,0,19.89,15.07c22.92,14.9,21.62,46.73,9,63.46-7,9.23-20.92,12.37-33.2,7.59-1.85-.73-3.62-1.68-5.41-2.57-3.27-1.62-6.11-2.08-7.29,2.47-.35,1.39-1,2.58-2.72,2.21s-1.45-2-1.45-3.24C1154.23,546.16,1154.25,539.83,1154.25,533.5Z" transform="translate(-324.14 -428.89)"/><path class="cls-1" d="M1040.86,533.66c0-6.33,0-12.65,0-19,0-1.19-.58-2.92,1.41-3.18s2.34,1.35,2.59,2.89c1.31,7.91,3.1,15.69,7.06,22.76,3.34,6,7.68,10.92,14.84,12.35,6.69,1.34,12.23-1.43,15.28-7.54,5.55-11.12,3.11-22.6-6.66-30.28-5.36-4.21-10.93-8.16-16.44-12.2-21.56-15.85-20-39.69-12.87-55.44,6-13.26,17.37-18.06,31.3-13.42a71.21,71.21,0,0,1,8.27,3.47c3.06,1.46,5.19.93,6.1-2.48.44-1.62,1-2.88,3-2.5s1.31,2.07,1.32,3.23q.09,16.23,0,32.47c0,1.15.71,2.94-1.39,3.14s-2.15-1.73-2.44-3.07a61.54,61.54,0,0,0-6.29-17.28,44.68,44.68,0,0,0-4.74-7c-4.23-5-9.72-7.33-16.07-5.34s-8.64,7.37-9.35,13.53c-1,8.16,1,15.17,8,20.29,6.43,4.75,12.64,9.8,19.22,14.32,21.72,14.89,20.8,46.75,7,63.65-6.91,8.49-20.38,11.12-32.17,6.62-2-.76-3.94-1.79-5.88-2.75-3.15-1.55-5.83-1.76-6.92,2.45-.36,1.38-.83,2.57-2.6,2.38-2.11-.24-1.48-1.94-1.49-3.1C1040.82,546.32,1040.86,540,1040.86,533.66Z" transform="translate(-324.14 -428.89)"/><path class="cls-1" d="M1117,492.44c0-14,0-28,0-42,0-9.19-.85-10.41-9.72-13.37-1.89-.63-1.66-1.74-1.69-3,0-1.54.88-1.91,2.26-1.91q19.49,0,39,0c1.61,0,2.49.53,2.48,2.28,0,1.54-.51,2.21-2.17,2.67-8,2.2-9.3,3.77-9.32,12.11q-.09,43.47,0,86.95c0,8.38,1,9.66,9.23,12.25,1.49.47,2.29,1,2.26,2.66,0,1.95-1.26,2-2.68,2q-19.24,0-38.49,0c-1.53,0-2.53-.36-2.57-2.19s.85-2.17,2.32-2.61c7.46-2.22,9-4.18,9.08-11.94C1117,521.75,1117,507.09,1117,492.44Z" transform="translate(-324.14 -428.89)"/><path class="cls-1" d="M831.2,606.6c.27-2.09-1.24-2.37-2.91-2.36q-19.24,0-38.49,0c-1.67,0-3.2.27-2.89,2.36.28,1.87-1.51,4.84,1.88,5.31,12.88,1.82,16.16,10.81,16.47,21.9.84,30,.29,60,.29,90,0,.28-.27.55-.8,1.61-1.3-2.13-2.35-3.78-3.33-5.49q-31.78-55.73-63.51-111.51c-1.64-2.9-3.36-4.31-6.95-4.23-11.32.28-22.66,0-34,.17-1.72,0-4.48-1.32-5,1.64-.43,2.59-1.17,5.72,2.79,6.86,1.8.53,2.89,2.16,4,3.64,7,9.16,12.7,18.71,10.42,31a27.69,27.69,0,0,0,0,5q0,59.48,0,119c0,5.53-.44,11-3,16.05a11,11,0,0,1-9.66,6.17c-3.7.17-5.74-3.05-7.3-6a91.32,91.32,0,0,1-6.26-16.29Q658,688.06,633.22,604.83c-.69-2.29-.67-4.81-4.42-4.84s-3.71,2.72-4.33,4.91Q606.18,669.76,588,734.65c-4.4,15.53-8.18,31.24-13.86,46.38-2.15,5.75-5.07,11-11.5,12.9-3.52,1.06-1.8,3.84-1.94,5.86-.19,2.7,2.14,2,3.63,2q16.5.07,33,0c2.28,0,5,1,5.09-3.28.06-3.73-1.56-4.25-4.69-4.55-9.11-.85-12.54-5.49-11.21-14.54,1.56-10.57,4.82-20.74,7.24-31.11.8-3.39,2.36-4.12,5.49-4,8.5.18,17,0,25.5.07,5.14,0,11.43-1.54,15.12.84,4,2.58,3.62,9.55,5.16,14.6,2.18,7.16,4.45,14.35,4.91,21.87.51,8.51-1.8,11.13-10.15,12.2a11.53,11.53,0,0,1-2.48.2c-3.2-.24-3.81,1.43-3.83,4.27s1.19,3.56,3.88,3.55q48.24-.11,96.48,0c2,0,4.09.33,4-2.86-.08-2.61.12-4.54-3.58-5.12-8.63-1.37-12.66-5.86-14.31-14.39a72.3,72.3,0,0,1-1-13.93q0-54.74,0-109.46c0-1.54-.62-3.25.68-4.75,1.91,1.16,2.46,3.16,3.4,4.82q42.09,73.73,84.1,147.5c1.46,2.57,2.88,5.19,6.37,4,3.14-1,1.62-4,1.62-6q.15-83.22.07-166.44c0-10.69.82-20.68,14.24-23.17C832.61,611.46,831,608.51,831.2,606.6ZM634.06,732.9q-16.71-.14-33.44,0c-2.32,0-2.9-.74-2.28-2.94q9-31.89,18-63.78c.07-.24.47-.39,1.26-1,6.3,21.8,12.44,43.18,18.71,64.53C637.07,732.18,636.68,732.92,634.06,732.9Z" transform="translate(-324.14 -428.89)"/><path class="cls-1" d="M1450.9,675.72c-3.71-21.63-11.69-41.3-27.31-57.19-24.5-24.94-62.21-24.67-86.45.48a91.73,91.73,0,0,0-20.06,32.48c-9.84,26.74-11.37,54.25-6.49,82.13,3.79,21.62,12.37,41.11,28.17,56.77,22.93,22.73,58.25,23.29,82.14,1.55A88,88,0,0,0,1441,764.21c9.07-19,12.12-39.28,12.1-62.81A143.18,143.18,0,0,0,1450.9,675.72Zm-34,29.08c-.3,21.16-1,42.29-6.9,62.84-2,6.92-4.59,13.57-8.84,19.45-11.07,15.3-30.14,15.4-41.15,0-7.57-10.56-10.72-22.88-12.42-35.47-4.66-34.36-4.9-68.72,1.45-102.93a79.35,79.35,0,0,1,7-21.27c5.06-10,12-17.91,24.23-18,11.94-.11,18.58,7.72,23.68,17.23,6.63,12.4,9.22,26,10.88,39.73A298.5,298.5,0,0,1,1416.89,704.8Z" transform="translate(-324.14 -428.89)"/><path class="cls-1" d="M580.28,472.57c-2.22-11.68-7-22.2-15.23-30.95-15.46-16.51-39.56-16.32-54.79.38a59.69,59.69,0,0,0-13.11,23.87,100,100,0,0,0-2.48,45c.27,1.6,1.89,4.27-.22,4.82-3.17.81-2.89,3.28-3.82,5.19-2,4-3.51,8.3-5.76,12.17-6.35,10.93-17.11,15.87-29.59,14.12-3.88-.54-6.29-2.44-6.34-6.38-.19-14.66-.21-29.31-.3-44,0-1.81.6-2.77,2.65-2.53,6.17.71,11.2,3,13.81,9.13,2.11,5,2.82,10.24,3.67,15.5.19,1.18-.26,3,1.79,3s1.59-1.78,1.6-2.94q.06-27,0-54c0-1.17.58-2.9-1.59-3s-1.78,1.71-2,2.87c-.88,4.92-1.76,9.85-3.74,14.47A14.06,14.06,0,0,1,451.42,488c-1.87,0-2.79-.48-2.78-2.46.11-14,.15-28,.28-42a4.73,4.73,0,0,1,3.15-4.64c9.88-4.14,25.57,2,29.91,11.74,2,4.45,2.93,9.18,3.94,13.9.32,1.47-.25,3.84,2.4,3.47,2.2-.3,1.41-2.34,1.42-3.67.07-9-.16-18,.13-27,.13-4.08-.95-5.37-5.2-5.32-20.83.22-41.66.1-62.48.1-.83,0-1.67,0-2.5,0-1.28,0-2.34.26-2.37,1.85,0,1.35,0,2.39,1.71,3.06,8.54,3.27,9.25,4.3,9.27,13.29q.07,40.72,0,81.45c0,2.34,0,4.67-.16,7-.36,5-2.34,8.66-7.83,9.39-1.75.23-3.28.61-3,3,.28,2.75,2.35,1.9,3.78,1.9,22,.06,44,0,66,.11,3.15,0,3.82-1.28,4.17-4.05,1.27-10,2.82-20.07,4.26-30.09l.9-.15c.55,1.51,1.09,3,1.64,4.54a61.19,61.19,0,0,0,13,21.7c14.8,15.51,37.92,15.78,53.06.62A55.8,55.8,0,0,0,577,525.24C583.31,508,583.66,490.38,580.28,472.57ZM560.09,491c-.07,15.13-.63,27.92-4.06,40.4a36.72,36.72,0,0,1-6,13.06c-6.63,8.55-17.61,8.62-24.31.14a36.74,36.74,0,0,1-6.94-16.4,183,183,0,0,1,.48-71.9,36.16,36.16,0,0,1,5.84-13.69c6.85-9.58,18.15-9.65,25,0,6,8.44,7.68,18.32,8.88,28.27A142.22,142.22,0,0,1,560.09,491Z" transform="translate(-324.14 -428.89)"/></svg>